G04 #@! TF.FileFunction,Copper,L2,Bot,Signal*
%FSLAX46Y46*%
G04 Gerber Fmt 4.6, Leading zero omitted, Abs format (unit mm)*
G04 Created by KiCad (PCBNEW 4.0.6) date 04/26/18 16:11:40*
%MOMM*%
%LPD*%
G01*
G04 APERTURE LIST*
%ADD10C,0.100000*%
%ADD11C,0.300000*%
%ADD12R,3.200000X3.200000*%
%ADD13C,3.200000*%
%ADD14R,1.700000X1.200000*%
%ADD15O,1.700000X1.200000*%
%ADD16C,7.000000*%
%ADD17C,2.000000*%
%ADD18C,1.000000*%
%ADD19C,0.254000*%
G04 APERTURE END LIST*
D10*
D11*
X169964285Y-110678571D02*
X170678571Y-110678571D01*
X170678571Y-109178571D01*
X169464285Y-110678571D02*
X169464285Y-109678571D01*
X169464285Y-109178571D02*
X169535714Y-109250000D01*
X169464285Y-109321429D01*
X169392857Y-109250000D01*
X169464285Y-109178571D01*
X169464285Y-109321429D01*
X168107142Y-110607143D02*
X168249999Y-110678571D01*
X168535713Y-110678571D01*
X168678571Y-110607143D01*
X168749999Y-110535714D01*
X168821428Y-110392857D01*
X168821428Y-109964286D01*
X168749999Y-109821429D01*
X168678571Y-109750000D01*
X168535713Y-109678571D01*
X168249999Y-109678571D01*
X168107142Y-109750000D01*
X166892857Y-110607143D02*
X167035714Y-110678571D01*
X167321428Y-110678571D01*
X167464285Y-110607143D01*
X167535714Y-110464286D01*
X167535714Y-109892857D01*
X167464285Y-109750000D01*
X167321428Y-109678571D01*
X167035714Y-109678571D01*
X166892857Y-109750000D01*
X166821428Y-109892857D01*
X166821428Y-110035714D01*
X167535714Y-110178571D01*
X166178571Y-109678571D02*
X166178571Y-110678571D01*
X166178571Y-109821429D02*
X166107143Y-109750000D01*
X165964285Y-109678571D01*
X165750000Y-109678571D01*
X165607143Y-109750000D01*
X165535714Y-109892857D01*
X165535714Y-110678571D01*
X164892857Y-110607143D02*
X164750000Y-110678571D01*
X164464285Y-110678571D01*
X164321428Y-110607143D01*
X164250000Y-110464286D01*
X164250000Y-110392857D01*
X164321428Y-110250000D01*
X164464285Y-110178571D01*
X164678571Y-110178571D01*
X164821428Y-110107143D01*
X164892857Y-109964286D01*
X164892857Y-109892857D01*
X164821428Y-109750000D01*
X164678571Y-109678571D01*
X164464285Y-109678571D01*
X164321428Y-109750000D01*
X163035714Y-110607143D02*
X163178571Y-110678571D01*
X163464285Y-110678571D01*
X163607142Y-110607143D01*
X163678571Y-110464286D01*
X163678571Y-109892857D01*
X163607142Y-109750000D01*
X163464285Y-109678571D01*
X163178571Y-109678571D01*
X163035714Y-109750000D01*
X162964285Y-109892857D01*
X162964285Y-110035714D01*
X163678571Y-110178571D01*
X161678571Y-110678571D02*
X161678571Y-109178571D01*
X161678571Y-110607143D02*
X161821428Y-110678571D01*
X162107142Y-110678571D01*
X162250000Y-110607143D01*
X162321428Y-110535714D01*
X162392857Y-110392857D01*
X162392857Y-109964286D01*
X162321428Y-109821429D01*
X162250000Y-109750000D01*
X162107142Y-109678571D01*
X161821428Y-109678571D01*
X161678571Y-109750000D01*
X159178571Y-109678571D02*
X159178571Y-110678571D01*
X159821428Y-109678571D02*
X159821428Y-110464286D01*
X159750000Y-110607143D01*
X159607142Y-110678571D01*
X159392857Y-110678571D01*
X159250000Y-110607143D01*
X159178571Y-110535714D01*
X158464285Y-109678571D02*
X158464285Y-110678571D01*
X158464285Y-109821429D02*
X158392857Y-109750000D01*
X158249999Y-109678571D01*
X158035714Y-109678571D01*
X157892857Y-109750000D01*
X157821428Y-109892857D01*
X157821428Y-110678571D01*
X156464285Y-110678571D02*
X156464285Y-109178571D01*
X156464285Y-110607143D02*
X156607142Y-110678571D01*
X156892856Y-110678571D01*
X157035714Y-110607143D01*
X157107142Y-110535714D01*
X157178571Y-110392857D01*
X157178571Y-109964286D01*
X157107142Y-109821429D01*
X157035714Y-109750000D01*
X156892856Y-109678571D01*
X156607142Y-109678571D01*
X156464285Y-109750000D01*
X155178571Y-110607143D02*
X155321428Y-110678571D01*
X155607142Y-110678571D01*
X155749999Y-110607143D01*
X155821428Y-110464286D01*
X155821428Y-109892857D01*
X155749999Y-109750000D01*
X155607142Y-109678571D01*
X155321428Y-109678571D01*
X155178571Y-109750000D01*
X155107142Y-109892857D01*
X155107142Y-110035714D01*
X155821428Y-110178571D01*
X154464285Y-110678571D02*
X154464285Y-109678571D01*
X154464285Y-109964286D02*
X154392857Y-109821429D01*
X154321428Y-109750000D01*
X154178571Y-109678571D01*
X154035714Y-109678571D01*
X151535714Y-110535714D02*
X151607143Y-110607143D01*
X151821429Y-110678571D01*
X151964286Y-110678571D01*
X152178571Y-110607143D01*
X152321429Y-110464286D01*
X152392857Y-110321429D01*
X152464286Y-110035714D01*
X152464286Y-109821429D01*
X152392857Y-109535714D01*
X152321429Y-109392857D01*
X152178571Y-109250000D01*
X151964286Y-109178571D01*
X151821429Y-109178571D01*
X151607143Y-109250000D01*
X151535714Y-109321429D01*
X150892857Y-109892857D02*
X150392857Y-109892857D01*
X150178571Y-110678571D02*
X150892857Y-110678571D01*
X150892857Y-109178571D01*
X150178571Y-109178571D01*
X148678571Y-110678571D02*
X149178571Y-109964286D01*
X149535714Y-110678571D02*
X149535714Y-109178571D01*
X148964286Y-109178571D01*
X148821428Y-109250000D01*
X148750000Y-109321429D01*
X148678571Y-109464286D01*
X148678571Y-109678571D01*
X148750000Y-109821429D01*
X148821428Y-109892857D01*
X148964286Y-109964286D01*
X149535714Y-109964286D01*
X148035714Y-110678571D02*
X148035714Y-109178571D01*
X147178571Y-110678571D01*
X147178571Y-109178571D01*
X145035714Y-109178571D02*
X144750000Y-109178571D01*
X144607142Y-109250000D01*
X144464285Y-109392857D01*
X144392857Y-109678571D01*
X144392857Y-110178571D01*
X144464285Y-110464286D01*
X144607142Y-110607143D01*
X144750000Y-110678571D01*
X145035714Y-110678571D01*
X145178571Y-110607143D01*
X145321428Y-110464286D01*
X145392857Y-110178571D01*
X145392857Y-109678571D01*
X145321428Y-109392857D01*
X145178571Y-109250000D01*
X145035714Y-109178571D01*
X143749999Y-110678571D02*
X143749999Y-109178571D01*
X143749999Y-109892857D02*
X142892856Y-109892857D01*
X142892856Y-110678571D02*
X142892856Y-109178571D01*
X141464284Y-110678571D02*
X142178570Y-110678571D01*
X142178570Y-109178571D01*
X139964284Y-109678571D02*
X139607141Y-110678571D01*
X139249999Y-109678571D01*
X138678570Y-110535714D02*
X138607142Y-110607143D01*
X138678570Y-110678571D01*
X138749999Y-110607143D01*
X138678570Y-110535714D01*
X138678570Y-110678571D01*
X137178570Y-110678571D02*
X138035713Y-110678571D01*
X137607141Y-110678571D02*
X137607141Y-109178571D01*
X137749998Y-109392857D01*
X137892856Y-109535714D01*
X138035713Y-109607143D01*
X136535713Y-110535714D02*
X136464285Y-110607143D01*
X136535713Y-110678571D01*
X136607142Y-110607143D01*
X136535713Y-110535714D01*
X136535713Y-110678571D01*
X135892856Y-109321429D02*
X135821427Y-109250000D01*
X135678570Y-109178571D01*
X135321427Y-109178571D01*
X135178570Y-109250000D01*
X135107141Y-109321429D01*
X135035713Y-109464286D01*
X135035713Y-109607143D01*
X135107141Y-109821429D01*
X135964284Y-110678571D01*
X135035713Y-110678571D01*
X133035713Y-110678571D02*
X133178571Y-110607143D01*
X133249999Y-110535714D01*
X133321428Y-110392857D01*
X133321428Y-109964286D01*
X133249999Y-109821429D01*
X133178571Y-109750000D01*
X133035713Y-109678571D01*
X132821428Y-109678571D01*
X132678571Y-109750000D01*
X132607142Y-109821429D01*
X132535713Y-109964286D01*
X132535713Y-110392857D01*
X132607142Y-110535714D01*
X132678571Y-110607143D01*
X132821428Y-110678571D01*
X133035713Y-110678571D01*
X131892856Y-110678571D02*
X131892856Y-109678571D01*
X131892856Y-109964286D02*
X131821428Y-109821429D01*
X131749999Y-109750000D01*
X131607142Y-109678571D01*
X131464285Y-109678571D01*
X129607142Y-110678571D02*
X129750000Y-110607143D01*
X129821428Y-110464286D01*
X129821428Y-109178571D01*
X128392857Y-110678571D02*
X128392857Y-109892857D01*
X128464286Y-109750000D01*
X128607143Y-109678571D01*
X128892857Y-109678571D01*
X129035714Y-109750000D01*
X128392857Y-110607143D02*
X128535714Y-110678571D01*
X128892857Y-110678571D01*
X129035714Y-110607143D01*
X129107143Y-110464286D01*
X129107143Y-110321429D01*
X129035714Y-110178571D01*
X128892857Y-110107143D01*
X128535714Y-110107143D01*
X128392857Y-110035714D01*
X127892857Y-109678571D02*
X127321428Y-109678571D01*
X127678571Y-109178571D02*
X127678571Y-110464286D01*
X127607143Y-110607143D01*
X127464285Y-110678571D01*
X127321428Y-110678571D01*
X126250000Y-110607143D02*
X126392857Y-110678571D01*
X126678571Y-110678571D01*
X126821428Y-110607143D01*
X126892857Y-110464286D01*
X126892857Y-109892857D01*
X126821428Y-109750000D01*
X126678571Y-109678571D01*
X126392857Y-109678571D01*
X126250000Y-109750000D01*
X126178571Y-109892857D01*
X126178571Y-110035714D01*
X126892857Y-110178571D01*
X125535714Y-110678571D02*
X125535714Y-109678571D01*
X125535714Y-109964286D02*
X125464286Y-109821429D01*
X125392857Y-109750000D01*
X125250000Y-109678571D01*
X125107143Y-109678571D01*
X204178570Y-92403571D02*
X204178570Y-90903571D01*
X204178570Y-91617857D02*
X203321427Y-91617857D01*
X203321427Y-92403571D02*
X203321427Y-90903571D01*
X202678570Y-91975000D02*
X201964284Y-91975000D01*
X202821427Y-92403571D02*
X202321427Y-90903571D01*
X201821427Y-92403571D01*
X201035713Y-90903571D02*
X200749999Y-90903571D01*
X200607141Y-90975000D01*
X200464284Y-91117857D01*
X200392856Y-91403571D01*
X200392856Y-91903571D01*
X200464284Y-92189286D01*
X200607141Y-92332143D01*
X200749999Y-92403571D01*
X201035713Y-92403571D01*
X201178570Y-92332143D01*
X201321427Y-92189286D01*
X201392856Y-91903571D01*
X201392856Y-91403571D01*
X201321427Y-91117857D01*
X201178570Y-90975000D01*
X201035713Y-90903571D01*
X199821427Y-92332143D02*
X199607141Y-92403571D01*
X199249998Y-92403571D01*
X199107141Y-92332143D01*
X199035712Y-92260714D01*
X198964284Y-92117857D01*
X198964284Y-91975000D01*
X199035712Y-91832143D01*
X199107141Y-91760714D01*
X199249998Y-91689286D01*
X199535712Y-91617857D01*
X199678570Y-91546429D01*
X199749998Y-91475000D01*
X199821427Y-91332143D01*
X199821427Y-91189286D01*
X199749998Y-91046429D01*
X199678570Y-90975000D01*
X199535712Y-90903571D01*
X199178570Y-90903571D01*
X198964284Y-90975000D01*
X196321427Y-92403571D02*
X196821427Y-91689286D01*
X197178570Y-92403571D02*
X197178570Y-90903571D01*
X196607142Y-90903571D01*
X196464284Y-90975000D01*
X196392856Y-91046429D01*
X196321427Y-91189286D01*
X196321427Y-91403571D01*
X196392856Y-91546429D01*
X196464284Y-91617857D01*
X196607142Y-91689286D01*
X197178570Y-91689286D01*
X195678570Y-91617857D02*
X195178570Y-91617857D01*
X194964284Y-92403571D02*
X195678570Y-92403571D01*
X195678570Y-90903571D01*
X194964284Y-90903571D01*
X194321427Y-92403571D02*
X194321427Y-90903571D01*
X193964284Y-90903571D01*
X193749999Y-90975000D01*
X193607141Y-91117857D01*
X193535713Y-91260714D01*
X193464284Y-91546429D01*
X193464284Y-91760714D01*
X193535713Y-92046429D01*
X193607141Y-92189286D01*
X193749999Y-92332143D01*
X193964284Y-92403571D01*
X194321427Y-92403571D01*
X191964284Y-92403571D02*
X192464284Y-91689286D01*
X192821427Y-92403571D02*
X192821427Y-90903571D01*
X192249999Y-90903571D01*
X192107141Y-90975000D01*
X192035713Y-91046429D01*
X191964284Y-91189286D01*
X191964284Y-91403571D01*
X192035713Y-91546429D01*
X192107141Y-91617857D01*
X192249999Y-91689286D01*
X192821427Y-91689286D01*
X191035713Y-90903571D02*
X190749999Y-90903571D01*
X190607141Y-90975000D01*
X190464284Y-91117857D01*
X190392856Y-91403571D01*
X190392856Y-91903571D01*
X190464284Y-92189286D01*
X190607141Y-92332143D01*
X190749999Y-92403571D01*
X191035713Y-92403571D01*
X191178570Y-92332143D01*
X191321427Y-92189286D01*
X191392856Y-91903571D01*
X191392856Y-91403571D01*
X191321427Y-91117857D01*
X191178570Y-90975000D01*
X191035713Y-90903571D01*
X188607141Y-92403571D02*
X188607141Y-90903571D01*
X188035713Y-90903571D01*
X187892855Y-90975000D01*
X187821427Y-91046429D01*
X187749998Y-91189286D01*
X187749998Y-91403571D01*
X187821427Y-91546429D01*
X187892855Y-91617857D01*
X188035713Y-91689286D01*
X188607141Y-91689286D01*
X187107141Y-92403571D02*
X187107141Y-90903571D01*
X186249998Y-92403571D01*
X186249998Y-90903571D01*
X185535712Y-92260714D02*
X185464284Y-92332143D01*
X185535712Y-92403571D01*
X185607141Y-92332143D01*
X185535712Y-92260714D01*
X185535712Y-92403571D01*
X185535712Y-91475000D02*
X185464284Y-91546429D01*
X185535712Y-91617857D01*
X185607141Y-91546429D01*
X185535712Y-91475000D01*
X185535712Y-91617857D01*
X183392855Y-90903571D02*
X183249998Y-90903571D01*
X183107141Y-90975000D01*
X183035712Y-91046429D01*
X182964283Y-91189286D01*
X182892855Y-91475000D01*
X182892855Y-91832143D01*
X182964283Y-92117857D01*
X183035712Y-92260714D01*
X183107141Y-92332143D01*
X183249998Y-92403571D01*
X183392855Y-92403571D01*
X183535712Y-92332143D01*
X183607141Y-92260714D01*
X183678569Y-92117857D01*
X183749998Y-91832143D01*
X183749998Y-91475000D01*
X183678569Y-91189286D01*
X183607141Y-91046429D01*
X183535712Y-90975000D01*
X183392855Y-90903571D01*
X181964284Y-90903571D02*
X181821427Y-90903571D01*
X181678570Y-90975000D01*
X181607141Y-91046429D01*
X181535712Y-91189286D01*
X181464284Y-91475000D01*
X181464284Y-91832143D01*
X181535712Y-92117857D01*
X181607141Y-92260714D01*
X181678570Y-92332143D01*
X181821427Y-92403571D01*
X181964284Y-92403571D01*
X182107141Y-92332143D01*
X182178570Y-92260714D01*
X182249998Y-92117857D01*
X182321427Y-91832143D01*
X182321427Y-91475000D01*
X182249998Y-91189286D01*
X182178570Y-91046429D01*
X182107141Y-90975000D01*
X181964284Y-90903571D01*
X180535713Y-90903571D02*
X180392856Y-90903571D01*
X180249999Y-90975000D01*
X180178570Y-91046429D01*
X180107141Y-91189286D01*
X180035713Y-91475000D01*
X180035713Y-91832143D01*
X180107141Y-92117857D01*
X180178570Y-92260714D01*
X180249999Y-92332143D01*
X180392856Y-92403571D01*
X180535713Y-92403571D01*
X180678570Y-92332143D01*
X180749999Y-92260714D01*
X180821427Y-92117857D01*
X180892856Y-91832143D01*
X180892856Y-91475000D01*
X180821427Y-91189286D01*
X180749999Y-91046429D01*
X180678570Y-90975000D01*
X180535713Y-90903571D01*
X179107142Y-90903571D02*
X178964285Y-90903571D01*
X178821428Y-90975000D01*
X178749999Y-91046429D01*
X178678570Y-91189286D01*
X178607142Y-91475000D01*
X178607142Y-91832143D01*
X178678570Y-92117857D01*
X178749999Y-92260714D01*
X178821428Y-92332143D01*
X178964285Y-92403571D01*
X179107142Y-92403571D01*
X179249999Y-92332143D01*
X179321428Y-92260714D01*
X179392856Y-92117857D01*
X179464285Y-91832143D01*
X179464285Y-91475000D01*
X179392856Y-91189286D01*
X179321428Y-91046429D01*
X179249999Y-90975000D01*
X179107142Y-90903571D01*
X176535714Y-90903571D02*
X176392857Y-90903571D01*
X176250000Y-90975000D01*
X176178571Y-91046429D01*
X176107142Y-91189286D01*
X176035714Y-91475000D01*
X176035714Y-91832143D01*
X176107142Y-92117857D01*
X176178571Y-92260714D01*
X176250000Y-92332143D01*
X176392857Y-92403571D01*
X176535714Y-92403571D01*
X176678571Y-92332143D01*
X176750000Y-92260714D01*
X176821428Y-92117857D01*
X176892857Y-91832143D01*
X176892857Y-91475000D01*
X176821428Y-91189286D01*
X176750000Y-91046429D01*
X176678571Y-90975000D01*
X176535714Y-90903571D01*
X175107143Y-90903571D02*
X174964286Y-90903571D01*
X174821429Y-90975000D01*
X174750000Y-91046429D01*
X174678571Y-91189286D01*
X174607143Y-91475000D01*
X174607143Y-91832143D01*
X174678571Y-92117857D01*
X174750000Y-92260714D01*
X174821429Y-92332143D01*
X174964286Y-92403571D01*
X175107143Y-92403571D01*
X175250000Y-92332143D01*
X175321429Y-92260714D01*
X175392857Y-92117857D01*
X175464286Y-91832143D01*
X175464286Y-91475000D01*
X175392857Y-91189286D01*
X175321429Y-91046429D01*
X175250000Y-90975000D01*
X175107143Y-90903571D01*
X173678572Y-90903571D02*
X173535715Y-90903571D01*
X173392858Y-90975000D01*
X173321429Y-91046429D01*
X173250000Y-91189286D01*
X173178572Y-91475000D01*
X173178572Y-91832143D01*
X173250000Y-92117857D01*
X173321429Y-92260714D01*
X173392858Y-92332143D01*
X173535715Y-92403571D01*
X173678572Y-92403571D01*
X173821429Y-92332143D01*
X173892858Y-92260714D01*
X173964286Y-92117857D01*
X174035715Y-91832143D01*
X174035715Y-91475000D01*
X173964286Y-91189286D01*
X173892858Y-91046429D01*
X173821429Y-90975000D01*
X173678572Y-90903571D01*
X171750001Y-92403571D02*
X172607144Y-92403571D01*
X172178572Y-92403571D02*
X172178572Y-90903571D01*
X172321429Y-91117857D01*
X172464287Y-91260714D01*
X172607144Y-91332143D01*
X198750000Y-93953571D02*
X198464286Y-94953571D01*
X198178572Y-94239286D01*
X197892857Y-94953571D01*
X197607143Y-93953571D01*
X197178571Y-93953571D02*
X196892857Y-94953571D01*
X196607143Y-94239286D01*
X196321428Y-94953571D01*
X196035714Y-93953571D01*
X195607142Y-93953571D02*
X195321428Y-94953571D01*
X195035714Y-94239286D01*
X194749999Y-94953571D01*
X194464285Y-93953571D01*
X193892856Y-94810714D02*
X193821428Y-94882143D01*
X193892856Y-94953571D01*
X193964285Y-94882143D01*
X193892856Y-94810714D01*
X193892856Y-94953571D01*
X193178570Y-94953571D02*
X193178570Y-93453571D01*
X192535713Y-94953571D02*
X192535713Y-94167857D01*
X192607142Y-94025000D01*
X192749999Y-93953571D01*
X192964284Y-93953571D01*
X193107142Y-94025000D01*
X193178570Y-94096429D01*
X191178570Y-94953571D02*
X191178570Y-94167857D01*
X191249999Y-94025000D01*
X191392856Y-93953571D01*
X191678570Y-93953571D01*
X191821427Y-94025000D01*
X191178570Y-94882143D02*
X191321427Y-94953571D01*
X191678570Y-94953571D01*
X191821427Y-94882143D01*
X191892856Y-94739286D01*
X191892856Y-94596429D01*
X191821427Y-94453571D01*
X191678570Y-94382143D01*
X191321427Y-94382143D01*
X191178570Y-94310714D01*
X190249998Y-94953571D02*
X190392856Y-94882143D01*
X190464284Y-94810714D01*
X190535713Y-94667857D01*
X190535713Y-94239286D01*
X190464284Y-94096429D01*
X190392856Y-94025000D01*
X190249998Y-93953571D01*
X190035713Y-93953571D01*
X189892856Y-94025000D01*
X189821427Y-94096429D01*
X189749998Y-94239286D01*
X189749998Y-94667857D01*
X189821427Y-94810714D01*
X189892856Y-94882143D01*
X190035713Y-94953571D01*
X190249998Y-94953571D01*
X189178570Y-94882143D02*
X189035713Y-94953571D01*
X188749998Y-94953571D01*
X188607141Y-94882143D01*
X188535713Y-94739286D01*
X188535713Y-94667857D01*
X188607141Y-94525000D01*
X188749998Y-94453571D01*
X188964284Y-94453571D01*
X189107141Y-94382143D01*
X189178570Y-94239286D01*
X189178570Y-94167857D01*
X189107141Y-94025000D01*
X188964284Y-93953571D01*
X188749998Y-93953571D01*
X188607141Y-94025000D01*
X187892855Y-94953571D02*
X187892855Y-93953571D01*
X187892855Y-94239286D02*
X187821427Y-94096429D01*
X187749998Y-94025000D01*
X187607141Y-93953571D01*
X187464284Y-93953571D01*
X186392856Y-94882143D02*
X186535713Y-94953571D01*
X186821427Y-94953571D01*
X186964284Y-94882143D01*
X187035713Y-94739286D01*
X187035713Y-94167857D01*
X186964284Y-94025000D01*
X186821427Y-93953571D01*
X186535713Y-93953571D01*
X186392856Y-94025000D01*
X186321427Y-94167857D01*
X186321427Y-94310714D01*
X187035713Y-94453571D01*
X185035713Y-94953571D02*
X185035713Y-93453571D01*
X185035713Y-94882143D02*
X185178570Y-94953571D01*
X185464284Y-94953571D01*
X185607142Y-94882143D01*
X185678570Y-94810714D01*
X185749999Y-94667857D01*
X185749999Y-94239286D01*
X185678570Y-94096429D01*
X185607142Y-94025000D01*
X185464284Y-93953571D01*
X185178570Y-93953571D01*
X185035713Y-94025000D01*
X184321427Y-94953571D02*
X184321427Y-93953571D01*
X184321427Y-94239286D02*
X184249999Y-94096429D01*
X184178570Y-94025000D01*
X184035713Y-93953571D01*
X183892856Y-93953571D01*
X183178570Y-94953571D02*
X183321428Y-94882143D01*
X183392856Y-94810714D01*
X183464285Y-94667857D01*
X183464285Y-94239286D01*
X183392856Y-94096429D01*
X183321428Y-94025000D01*
X183178570Y-93953571D01*
X182964285Y-93953571D01*
X182821428Y-94025000D01*
X182749999Y-94096429D01*
X182678570Y-94239286D01*
X182678570Y-94667857D01*
X182749999Y-94810714D01*
X182821428Y-94882143D01*
X182964285Y-94953571D01*
X183178570Y-94953571D01*
X182035713Y-94810714D02*
X181964285Y-94882143D01*
X182035713Y-94953571D01*
X182107142Y-94882143D01*
X182035713Y-94810714D01*
X182035713Y-94953571D01*
X180678570Y-94882143D02*
X180821427Y-94953571D01*
X181107141Y-94953571D01*
X181249999Y-94882143D01*
X181321427Y-94810714D01*
X181392856Y-94667857D01*
X181392856Y-94239286D01*
X181321427Y-94096429D01*
X181249999Y-94025000D01*
X181107141Y-93953571D01*
X180821427Y-93953571D01*
X180678570Y-94025000D01*
X179821427Y-94953571D02*
X179964285Y-94882143D01*
X180035713Y-94810714D01*
X180107142Y-94667857D01*
X180107142Y-94239286D01*
X180035713Y-94096429D01*
X179964285Y-94025000D01*
X179821427Y-93953571D01*
X179607142Y-93953571D01*
X179464285Y-94025000D01*
X179392856Y-94096429D01*
X179321427Y-94239286D01*
X179321427Y-94667857D01*
X179392856Y-94810714D01*
X179464285Y-94882143D01*
X179607142Y-94953571D01*
X179821427Y-94953571D01*
X178678570Y-94953571D02*
X178678570Y-93953571D01*
X178678570Y-94096429D02*
X178607142Y-94025000D01*
X178464284Y-93953571D01*
X178249999Y-93953571D01*
X178107142Y-94025000D01*
X178035713Y-94167857D01*
X178035713Y-94953571D01*
X178035713Y-94167857D02*
X177964284Y-94025000D01*
X177821427Y-93953571D01*
X177607142Y-93953571D01*
X177464284Y-94025000D01*
X177392856Y-94167857D01*
X177392856Y-94953571D01*
D12*
X216500000Y-136500000D03*
D13*
X197500000Y-136500000D03*
X178500000Y-136500000D03*
X159500000Y-136500000D03*
X216500000Y-63500000D03*
X197500000Y-63500000D03*
X178500000Y-63500000D03*
X159500000Y-63500000D03*
D14*
X64000000Y-102500000D03*
D15*
X64000000Y-100500000D03*
X64000000Y-98500000D03*
D12*
X79500000Y-63500000D03*
D13*
X98500000Y-63500000D03*
X117500000Y-63500000D03*
X136500000Y-63500000D03*
X79500000Y-136500000D03*
X98500000Y-136500000D03*
X117500000Y-136500000D03*
X136500000Y-136500000D03*
D16*
X64000000Y-80500000D03*
X232000000Y-80500000D03*
X64000000Y-65000000D03*
X64000000Y-135000000D03*
X232000000Y-65000000D03*
X232000000Y-135000000D03*
D17*
X79500000Y-63500000D02*
X79500000Y-67500000D01*
D18*
X64000000Y-102500000D02*
X62500000Y-102500000D01*
X75000000Y-63500000D02*
X78500000Y-63500000D01*
X75000000Y-90000000D02*
X75000000Y-63500000D01*
X72000000Y-93000000D02*
X75000000Y-90000000D01*
X63500000Y-93000000D02*
X72000000Y-93000000D01*
X61500000Y-95000000D02*
X63500000Y-93000000D01*
X61500000Y-101500000D02*
X61500000Y-95000000D01*
X62500000Y-102500000D02*
X61500000Y-101500000D01*
X78500000Y-63500000D02*
X98000000Y-63500000D01*
X98000000Y-63500000D02*
X118000000Y-63500000D01*
X118000000Y-63500000D02*
X137500000Y-63500000D01*
X137500000Y-63500000D02*
X142500000Y-63500000D01*
D17*
X216500000Y-136500000D02*
X216500000Y-132500000D01*
D18*
X64000000Y-100500000D02*
X72000000Y-100500000D01*
X75000000Y-136500000D02*
X78500000Y-136500000D01*
X75000000Y-103500000D02*
X75000000Y-136500000D01*
X72000000Y-100500000D02*
X75000000Y-103500000D01*
X78500000Y-136500000D02*
X98000000Y-136500000D01*
X98000000Y-136500000D02*
X118000000Y-136500000D01*
X118000000Y-136500000D02*
X137500000Y-136500000D01*
X137500000Y-136500000D02*
X158500000Y-136500000D01*
X158500000Y-136500000D02*
X178000000Y-136500000D01*
X178000000Y-136500000D02*
X198000000Y-136500000D01*
X198000000Y-136500000D02*
X217500000Y-136500000D01*
X217500000Y-136500000D02*
X221500000Y-136500000D01*
X64000000Y-98500000D02*
X150500000Y-98500000D01*
X155500000Y-63500000D02*
X178000000Y-63500000D01*
X154000000Y-65000000D02*
X155500000Y-63500000D01*
X154000000Y-95000000D02*
X154000000Y-65000000D01*
X150500000Y-98500000D02*
X154000000Y-95000000D01*
X178000000Y-63500000D02*
X198000000Y-63500000D01*
X198000000Y-63500000D02*
X217500000Y-63500000D01*
X217500000Y-63500000D02*
X221500000Y-63500000D01*
D19*
G36*
X77265000Y-61773690D02*
X77265000Y-63214250D01*
X77423750Y-63373000D01*
X79373000Y-63373000D01*
X79373000Y-63353000D01*
X79627000Y-63353000D01*
X79627000Y-63373000D01*
X81576250Y-63373000D01*
X81735000Y-63214250D01*
X81735000Y-63092346D01*
X96257974Y-63092346D01*
X96272635Y-63981363D01*
X96584640Y-64734610D01*
X96913798Y-64906597D01*
X98320395Y-63500000D01*
X98679605Y-63500000D01*
X100086202Y-64906597D01*
X100415360Y-64734610D01*
X100742026Y-63907654D01*
X100728581Y-63092346D01*
X115257974Y-63092346D01*
X115272635Y-63981363D01*
X115584640Y-64734610D01*
X115913798Y-64906597D01*
X117320395Y-63500000D01*
X117679605Y-63500000D01*
X119086202Y-64906597D01*
X119415360Y-64734610D01*
X119742026Y-63907654D01*
X119728581Y-63092346D01*
X134257974Y-63092346D01*
X134272635Y-63981363D01*
X134584640Y-64734610D01*
X134913798Y-64906597D01*
X136320395Y-63500000D01*
X136679605Y-63500000D01*
X138086202Y-64906597D01*
X138415360Y-64734610D01*
X138742026Y-63907654D01*
X138727365Y-63018637D01*
X138415360Y-62265390D01*
X138086202Y-62093403D01*
X136679605Y-63500000D01*
X136320395Y-63500000D01*
X134913798Y-62093403D01*
X134584640Y-62265390D01*
X134257974Y-63092346D01*
X119728581Y-63092346D01*
X119727365Y-63018637D01*
X119415360Y-62265390D01*
X119086202Y-62093403D01*
X117679605Y-63500000D01*
X117320395Y-63500000D01*
X115913798Y-62093403D01*
X115584640Y-62265390D01*
X115257974Y-63092346D01*
X100728581Y-63092346D01*
X100727365Y-63018637D01*
X100415360Y-62265390D01*
X100086202Y-62093403D01*
X98679605Y-63500000D01*
X98320395Y-63500000D01*
X96913798Y-62093403D01*
X96584640Y-62265390D01*
X96257974Y-63092346D01*
X81735000Y-63092346D01*
X81735000Y-61773690D01*
X81708619Y-61710000D01*
X97199889Y-61710000D01*
X97093403Y-61913798D01*
X98500000Y-63320395D01*
X99906597Y-61913798D01*
X99800111Y-61710000D01*
X116199889Y-61710000D01*
X116093403Y-61913798D01*
X117500000Y-63320395D01*
X118906597Y-61913798D01*
X118800111Y-61710000D01*
X135199889Y-61710000D01*
X135093403Y-61913798D01*
X136500000Y-63320395D01*
X137906597Y-61913798D01*
X137800111Y-61710000D01*
X146873000Y-61710000D01*
X146873000Y-95873000D01*
X60710000Y-95873000D01*
X60710000Y-68253537D01*
X61375593Y-68920292D01*
X63075595Y-69626195D01*
X64916329Y-69627801D01*
X66617561Y-68924867D01*
X67920292Y-67624407D01*
X68626195Y-65924405D01*
X68627801Y-64083671D01*
X68504703Y-63785750D01*
X77265000Y-63785750D01*
X77265000Y-65226310D01*
X77361673Y-65459699D01*
X77540302Y-65638327D01*
X77773691Y-65735000D01*
X79214250Y-65735000D01*
X79373000Y-65576250D01*
X79373000Y-63627000D01*
X79627000Y-63627000D01*
X79627000Y-65576250D01*
X79785750Y-65735000D01*
X81226309Y-65735000D01*
X81459698Y-65638327D01*
X81638327Y-65459699D01*
X81735000Y-65226310D01*
X81735000Y-65086202D01*
X97093403Y-65086202D01*
X97265390Y-65415360D01*
X98092346Y-65742026D01*
X98981363Y-65727365D01*
X99734610Y-65415360D01*
X99906597Y-65086202D01*
X116093403Y-65086202D01*
X116265390Y-65415360D01*
X117092346Y-65742026D01*
X117981363Y-65727365D01*
X118734610Y-65415360D01*
X118906597Y-65086202D01*
X135093403Y-65086202D01*
X135265390Y-65415360D01*
X136092346Y-65742026D01*
X136981363Y-65727365D01*
X137734610Y-65415360D01*
X137906597Y-65086202D01*
X136500000Y-63679605D01*
X135093403Y-65086202D01*
X118906597Y-65086202D01*
X117500000Y-63679605D01*
X116093403Y-65086202D01*
X99906597Y-65086202D01*
X98500000Y-63679605D01*
X97093403Y-65086202D01*
X81735000Y-65086202D01*
X81735000Y-63785750D01*
X81576250Y-63627000D01*
X79627000Y-63627000D01*
X79373000Y-63627000D01*
X77423750Y-63627000D01*
X77265000Y-63785750D01*
X68504703Y-63785750D01*
X67924867Y-62382439D01*
X67253600Y-61710000D01*
X77291381Y-61710000D01*
X77265000Y-61773690D01*
X77265000Y-61773690D01*
G37*
X77265000Y-61773690D02*
X77265000Y-63214250D01*
X77423750Y-63373000D01*
X79373000Y-63373000D01*
X79373000Y-63353000D01*
X79627000Y-63353000D01*
X79627000Y-63373000D01*
X81576250Y-63373000D01*
X81735000Y-63214250D01*
X81735000Y-63092346D01*
X96257974Y-63092346D01*
X96272635Y-63981363D01*
X96584640Y-64734610D01*
X96913798Y-64906597D01*
X98320395Y-63500000D01*
X98679605Y-63500000D01*
X100086202Y-64906597D01*
X100415360Y-64734610D01*
X100742026Y-63907654D01*
X100728581Y-63092346D01*
X115257974Y-63092346D01*
X115272635Y-63981363D01*
X115584640Y-64734610D01*
X115913798Y-64906597D01*
X117320395Y-63500000D01*
X117679605Y-63500000D01*
X119086202Y-64906597D01*
X119415360Y-64734610D01*
X119742026Y-63907654D01*
X119728581Y-63092346D01*
X134257974Y-63092346D01*
X134272635Y-63981363D01*
X134584640Y-64734610D01*
X134913798Y-64906597D01*
X136320395Y-63500000D01*
X136679605Y-63500000D01*
X138086202Y-64906597D01*
X138415360Y-64734610D01*
X138742026Y-63907654D01*
X138727365Y-63018637D01*
X138415360Y-62265390D01*
X138086202Y-62093403D01*
X136679605Y-63500000D01*
X136320395Y-63500000D01*
X134913798Y-62093403D01*
X134584640Y-62265390D01*
X134257974Y-63092346D01*
X119728581Y-63092346D01*
X119727365Y-63018637D01*
X119415360Y-62265390D01*
X119086202Y-62093403D01*
X117679605Y-63500000D01*
X117320395Y-63500000D01*
X115913798Y-62093403D01*
X115584640Y-62265390D01*
X115257974Y-63092346D01*
X100728581Y-63092346D01*
X100727365Y-63018637D01*
X100415360Y-62265390D01*
X100086202Y-62093403D01*
X98679605Y-63500000D01*
X98320395Y-63500000D01*
X96913798Y-62093403D01*
X96584640Y-62265390D01*
X96257974Y-63092346D01*
X81735000Y-63092346D01*
X81735000Y-61773690D01*
X81708619Y-61710000D01*
X97199889Y-61710000D01*
X97093403Y-61913798D01*
X98500000Y-63320395D01*
X99906597Y-61913798D01*
X99800111Y-61710000D01*
X116199889Y-61710000D01*
X116093403Y-61913798D01*
X117500000Y-63320395D01*
X118906597Y-61913798D01*
X118800111Y-61710000D01*
X135199889Y-61710000D01*
X135093403Y-61913798D01*
X136500000Y-63320395D01*
X137906597Y-61913798D01*
X137800111Y-61710000D01*
X146873000Y-61710000D01*
X146873000Y-95873000D01*
X60710000Y-95873000D01*
X60710000Y-68253537D01*
X61375593Y-68920292D01*
X63075595Y-69626195D01*
X64916329Y-69627801D01*
X66617561Y-68924867D01*
X67920292Y-67624407D01*
X68626195Y-65924405D01*
X68627801Y-64083671D01*
X68504703Y-63785750D01*
X77265000Y-63785750D01*
X77265000Y-65226310D01*
X77361673Y-65459699D01*
X77540302Y-65638327D01*
X77773691Y-65735000D01*
X79214250Y-65735000D01*
X79373000Y-65576250D01*
X79373000Y-63627000D01*
X79627000Y-63627000D01*
X79627000Y-65576250D01*
X79785750Y-65735000D01*
X81226309Y-65735000D01*
X81459698Y-65638327D01*
X81638327Y-65459699D01*
X81735000Y-65226310D01*
X81735000Y-65086202D01*
X97093403Y-65086202D01*
X97265390Y-65415360D01*
X98092346Y-65742026D01*
X98981363Y-65727365D01*
X99734610Y-65415360D01*
X99906597Y-65086202D01*
X116093403Y-65086202D01*
X116265390Y-65415360D01*
X117092346Y-65742026D01*
X117981363Y-65727365D01*
X118734610Y-65415360D01*
X118906597Y-65086202D01*
X135093403Y-65086202D01*
X135265390Y-65415360D01*
X136092346Y-65742026D01*
X136981363Y-65727365D01*
X137734610Y-65415360D01*
X137906597Y-65086202D01*
X136500000Y-63679605D01*
X135093403Y-65086202D01*
X118906597Y-65086202D01*
X117500000Y-63679605D01*
X116093403Y-65086202D01*
X99906597Y-65086202D01*
X98500000Y-63679605D01*
X97093403Y-65086202D01*
X81735000Y-65086202D01*
X81735000Y-63785750D01*
X81576250Y-63627000D01*
X79627000Y-63627000D01*
X79373000Y-63627000D01*
X77423750Y-63627000D01*
X77265000Y-63785750D01*
X68504703Y-63785750D01*
X67924867Y-62382439D01*
X67253600Y-61710000D01*
X77291381Y-61710000D01*
X77265000Y-61773690D01*
G36*
X228290000Y-108500000D02*
X228303642Y-108568584D01*
X228303642Y-108638514D01*
X228532003Y-109786564D01*
X228620412Y-110000000D01*
X228638018Y-110042505D01*
X229288337Y-111015775D01*
X229484225Y-111211663D01*
X230457495Y-111861982D01*
X230535889Y-111894454D01*
X230713436Y-111967997D01*
X231861487Y-112196358D01*
X231931416Y-112196358D01*
X232000000Y-112210000D01*
X235290000Y-112210000D01*
X235290000Y-131746463D01*
X234624407Y-131079708D01*
X232924405Y-130373805D01*
X231083671Y-130372199D01*
X229382439Y-131075133D01*
X228079708Y-132375593D01*
X227373805Y-134075595D01*
X227372199Y-135916329D01*
X228075133Y-137617561D01*
X228746400Y-138290000D01*
X218708619Y-138290000D01*
X218735000Y-138226310D01*
X218735000Y-136785750D01*
X218576250Y-136627000D01*
X216627000Y-136627000D01*
X216627000Y-136647000D01*
X216373000Y-136647000D01*
X216373000Y-136627000D01*
X214423750Y-136627000D01*
X214265000Y-136785750D01*
X214265000Y-138226310D01*
X214291381Y-138290000D01*
X198800111Y-138290000D01*
X198906597Y-138086202D01*
X197500000Y-136679605D01*
X196093403Y-138086202D01*
X196199889Y-138290000D01*
X179800111Y-138290000D01*
X179906597Y-138086202D01*
X178500000Y-136679605D01*
X177093403Y-138086202D01*
X177199889Y-138290000D01*
X160800111Y-138290000D01*
X160906597Y-138086202D01*
X159500000Y-136679605D01*
X158093403Y-138086202D01*
X158199889Y-138290000D01*
X137800111Y-138290000D01*
X137906597Y-138086202D01*
X136500000Y-136679605D01*
X135093403Y-138086202D01*
X135199889Y-138290000D01*
X118800111Y-138290000D01*
X118906597Y-138086202D01*
X117500000Y-136679605D01*
X116093403Y-138086202D01*
X116199889Y-138290000D01*
X99800111Y-138290000D01*
X99906597Y-138086202D01*
X98500000Y-136679605D01*
X97093403Y-138086202D01*
X97199889Y-138290000D01*
X80800111Y-138290000D01*
X80906597Y-138086202D01*
X79500000Y-136679605D01*
X78093403Y-138086202D01*
X78199889Y-138290000D01*
X67253537Y-138290000D01*
X67920292Y-137624407D01*
X68556459Y-136092346D01*
X77257974Y-136092346D01*
X77272635Y-136981363D01*
X77584640Y-137734610D01*
X77913798Y-137906597D01*
X79320395Y-136500000D01*
X79679605Y-136500000D01*
X81086202Y-137906597D01*
X81415360Y-137734610D01*
X81742026Y-136907654D01*
X81728581Y-136092346D01*
X96257974Y-136092346D01*
X96272635Y-136981363D01*
X96584640Y-137734610D01*
X96913798Y-137906597D01*
X98320395Y-136500000D01*
X98679605Y-136500000D01*
X100086202Y-137906597D01*
X100415360Y-137734610D01*
X100742026Y-136907654D01*
X100728581Y-136092346D01*
X115257974Y-136092346D01*
X115272635Y-136981363D01*
X115584640Y-137734610D01*
X115913798Y-137906597D01*
X117320395Y-136500000D01*
X117679605Y-136500000D01*
X119086202Y-137906597D01*
X119415360Y-137734610D01*
X119742026Y-136907654D01*
X119728581Y-136092346D01*
X134257974Y-136092346D01*
X134272635Y-136981363D01*
X134584640Y-137734610D01*
X134913798Y-137906597D01*
X136320395Y-136500000D01*
X136679605Y-136500000D01*
X138086202Y-137906597D01*
X138415360Y-137734610D01*
X138742026Y-136907654D01*
X138728581Y-136092346D01*
X157257974Y-136092346D01*
X157272635Y-136981363D01*
X157584640Y-137734610D01*
X157913798Y-137906597D01*
X159320395Y-136500000D01*
X159679605Y-136500000D01*
X161086202Y-137906597D01*
X161415360Y-137734610D01*
X161742026Y-136907654D01*
X161728581Y-136092346D01*
X176257974Y-136092346D01*
X176272635Y-136981363D01*
X176584640Y-137734610D01*
X176913798Y-137906597D01*
X178320395Y-136500000D01*
X178679605Y-136500000D01*
X180086202Y-137906597D01*
X180415360Y-137734610D01*
X180742026Y-136907654D01*
X180728581Y-136092346D01*
X195257974Y-136092346D01*
X195272635Y-136981363D01*
X195584640Y-137734610D01*
X195913798Y-137906597D01*
X197320395Y-136500000D01*
X197679605Y-136500000D01*
X199086202Y-137906597D01*
X199415360Y-137734610D01*
X199742026Y-136907654D01*
X199727365Y-136018637D01*
X199415360Y-135265390D01*
X199086202Y-135093403D01*
X197679605Y-136500000D01*
X197320395Y-136500000D01*
X195913798Y-135093403D01*
X195584640Y-135265390D01*
X195257974Y-136092346D01*
X180728581Y-136092346D01*
X180727365Y-136018637D01*
X180415360Y-135265390D01*
X180086202Y-135093403D01*
X178679605Y-136500000D01*
X178320395Y-136500000D01*
X176913798Y-135093403D01*
X176584640Y-135265390D01*
X176257974Y-136092346D01*
X161728581Y-136092346D01*
X161727365Y-136018637D01*
X161415360Y-135265390D01*
X161086202Y-135093403D01*
X159679605Y-136500000D01*
X159320395Y-136500000D01*
X157913798Y-135093403D01*
X157584640Y-135265390D01*
X157257974Y-136092346D01*
X138728581Y-136092346D01*
X138727365Y-136018637D01*
X138415360Y-135265390D01*
X138086202Y-135093403D01*
X136679605Y-136500000D01*
X136320395Y-136500000D01*
X134913798Y-135093403D01*
X134584640Y-135265390D01*
X134257974Y-136092346D01*
X119728581Y-136092346D01*
X119727365Y-136018637D01*
X119415360Y-135265390D01*
X119086202Y-135093403D01*
X117679605Y-136500000D01*
X117320395Y-136500000D01*
X115913798Y-135093403D01*
X115584640Y-135265390D01*
X115257974Y-136092346D01*
X100728581Y-136092346D01*
X100727365Y-136018637D01*
X100415360Y-135265390D01*
X100086202Y-135093403D01*
X98679605Y-136500000D01*
X98320395Y-136500000D01*
X96913798Y-135093403D01*
X96584640Y-135265390D01*
X96257974Y-136092346D01*
X81728581Y-136092346D01*
X81727365Y-136018637D01*
X81415360Y-135265390D01*
X81086202Y-135093403D01*
X79679605Y-136500000D01*
X79320395Y-136500000D01*
X77913798Y-135093403D01*
X77584640Y-135265390D01*
X77257974Y-136092346D01*
X68556459Y-136092346D01*
X68626195Y-135924405D01*
X68627076Y-134913798D01*
X78093403Y-134913798D01*
X79500000Y-136320395D01*
X80906597Y-134913798D01*
X97093403Y-134913798D01*
X98500000Y-136320395D01*
X99906597Y-134913798D01*
X116093403Y-134913798D01*
X117500000Y-136320395D01*
X118906597Y-134913798D01*
X135093403Y-134913798D01*
X136500000Y-136320395D01*
X137906597Y-134913798D01*
X158093403Y-134913798D01*
X159500000Y-136320395D01*
X160906597Y-134913798D01*
X177093403Y-134913798D01*
X178500000Y-136320395D01*
X179906597Y-134913798D01*
X196093403Y-134913798D01*
X197500000Y-136320395D01*
X198906597Y-134913798D01*
X198833390Y-134773690D01*
X214265000Y-134773690D01*
X214265000Y-136214250D01*
X214423750Y-136373000D01*
X216373000Y-136373000D01*
X216373000Y-134423750D01*
X216627000Y-134423750D01*
X216627000Y-136373000D01*
X218576250Y-136373000D01*
X218735000Y-136214250D01*
X218735000Y-134773690D01*
X218638327Y-134540301D01*
X218459698Y-134361673D01*
X218226309Y-134265000D01*
X216785750Y-134265000D01*
X216627000Y-134423750D01*
X216373000Y-134423750D01*
X216214250Y-134265000D01*
X214773691Y-134265000D01*
X214540302Y-134361673D01*
X214361673Y-134540301D01*
X214265000Y-134773690D01*
X198833390Y-134773690D01*
X198734610Y-134584640D01*
X197907654Y-134257974D01*
X197018637Y-134272635D01*
X196265390Y-134584640D01*
X196093403Y-134913798D01*
X179906597Y-134913798D01*
X179734610Y-134584640D01*
X178907654Y-134257974D01*
X178018637Y-134272635D01*
X177265390Y-134584640D01*
X177093403Y-134913798D01*
X160906597Y-134913798D01*
X160734610Y-134584640D01*
X159907654Y-134257974D01*
X159018637Y-134272635D01*
X158265390Y-134584640D01*
X158093403Y-134913798D01*
X137906597Y-134913798D01*
X137734610Y-134584640D01*
X136907654Y-134257974D01*
X136018637Y-134272635D01*
X135265390Y-134584640D01*
X135093403Y-134913798D01*
X118906597Y-134913798D01*
X118734610Y-134584640D01*
X117907654Y-134257974D01*
X117018637Y-134272635D01*
X116265390Y-134584640D01*
X116093403Y-134913798D01*
X99906597Y-134913798D01*
X99734610Y-134584640D01*
X98907654Y-134257974D01*
X98018637Y-134272635D01*
X97265390Y-134584640D01*
X97093403Y-134913798D01*
X80906597Y-134913798D01*
X80734610Y-134584640D01*
X79907654Y-134257974D01*
X79018637Y-134272635D01*
X78265390Y-134584640D01*
X78093403Y-134913798D01*
X68627076Y-134913798D01*
X68627801Y-134083671D01*
X67924867Y-132382439D01*
X66624407Y-131079708D01*
X64924405Y-130373805D01*
X63083671Y-130372199D01*
X61382439Y-131075133D01*
X60710000Y-131746400D01*
X60710000Y-125210000D01*
X64000000Y-125210000D01*
X64068584Y-125196358D01*
X64138514Y-125196358D01*
X65286564Y-124967997D01*
X65542505Y-124861982D01*
X66515775Y-124211663D01*
X66711663Y-124015775D01*
X67361982Y-123042505D01*
X67410670Y-122924962D01*
X67467997Y-122786564D01*
X67696358Y-121638513D01*
X67696358Y-121568584D01*
X67710000Y-121500000D01*
X67710000Y-110000000D01*
X67696358Y-109931416D01*
X67696358Y-109861487D01*
X67467997Y-108713436D01*
X67361982Y-108457496D01*
X67361982Y-108457495D01*
X67166543Y-108165000D01*
X124329286Y-108165000D01*
X124329286Y-111985000D01*
X171670714Y-111985000D01*
X171670714Y-108165000D01*
X124329286Y-108165000D01*
X67166543Y-108165000D01*
X66711663Y-107484225D01*
X66515775Y-107288337D01*
X65542505Y-106638018D01*
X65286564Y-106532003D01*
X64138514Y-106303642D01*
X64068584Y-106303642D01*
X64000000Y-106290000D01*
X60710000Y-106290000D01*
X60710000Y-104627000D01*
X228290000Y-104627000D01*
X228290000Y-108500000D01*
X228290000Y-108500000D01*
G37*
X228290000Y-108500000D02*
X228303642Y-108568584D01*
X228303642Y-108638514D01*
X228532003Y-109786564D01*
X228620412Y-110000000D01*
X228638018Y-110042505D01*
X229288337Y-111015775D01*
X229484225Y-111211663D01*
X230457495Y-111861982D01*
X230535889Y-111894454D01*
X230713436Y-111967997D01*
X231861487Y-112196358D01*
X231931416Y-112196358D01*
X232000000Y-112210000D01*
X235290000Y-112210000D01*
X235290000Y-131746463D01*
X234624407Y-131079708D01*
X232924405Y-130373805D01*
X231083671Y-130372199D01*
X229382439Y-131075133D01*
X228079708Y-132375593D01*
X227373805Y-134075595D01*
X227372199Y-135916329D01*
X228075133Y-137617561D01*
X228746400Y-138290000D01*
X218708619Y-138290000D01*
X218735000Y-138226310D01*
X218735000Y-136785750D01*
X218576250Y-136627000D01*
X216627000Y-136627000D01*
X216627000Y-136647000D01*
X216373000Y-136647000D01*
X216373000Y-136627000D01*
X214423750Y-136627000D01*
X214265000Y-136785750D01*
X214265000Y-138226310D01*
X214291381Y-138290000D01*
X198800111Y-138290000D01*
X198906597Y-138086202D01*
X197500000Y-136679605D01*
X196093403Y-138086202D01*
X196199889Y-138290000D01*
X179800111Y-138290000D01*
X179906597Y-138086202D01*
X178500000Y-136679605D01*
X177093403Y-138086202D01*
X177199889Y-138290000D01*
X160800111Y-138290000D01*
X160906597Y-138086202D01*
X159500000Y-136679605D01*
X158093403Y-138086202D01*
X158199889Y-138290000D01*
X137800111Y-138290000D01*
X137906597Y-138086202D01*
X136500000Y-136679605D01*
X135093403Y-138086202D01*
X135199889Y-138290000D01*
X118800111Y-138290000D01*
X118906597Y-138086202D01*
X117500000Y-136679605D01*
X116093403Y-138086202D01*
X116199889Y-138290000D01*
X99800111Y-138290000D01*
X99906597Y-138086202D01*
X98500000Y-136679605D01*
X97093403Y-138086202D01*
X97199889Y-138290000D01*
X80800111Y-138290000D01*
X80906597Y-138086202D01*
X79500000Y-136679605D01*
X78093403Y-138086202D01*
X78199889Y-138290000D01*
X67253537Y-138290000D01*
X67920292Y-137624407D01*
X68556459Y-136092346D01*
X77257974Y-136092346D01*
X77272635Y-136981363D01*
X77584640Y-137734610D01*
X77913798Y-137906597D01*
X79320395Y-136500000D01*
X79679605Y-136500000D01*
X81086202Y-137906597D01*
X81415360Y-137734610D01*
X81742026Y-136907654D01*
X81728581Y-136092346D01*
X96257974Y-136092346D01*
X96272635Y-136981363D01*
X96584640Y-137734610D01*
X96913798Y-137906597D01*
X98320395Y-136500000D01*
X98679605Y-136500000D01*
X100086202Y-137906597D01*
X100415360Y-137734610D01*
X100742026Y-136907654D01*
X100728581Y-136092346D01*
X115257974Y-136092346D01*
X115272635Y-136981363D01*
X115584640Y-137734610D01*
X115913798Y-137906597D01*
X117320395Y-136500000D01*
X117679605Y-136500000D01*
X119086202Y-137906597D01*
X119415360Y-137734610D01*
X119742026Y-136907654D01*
X119728581Y-136092346D01*
X134257974Y-136092346D01*
X134272635Y-136981363D01*
X134584640Y-137734610D01*
X134913798Y-137906597D01*
X136320395Y-136500000D01*
X136679605Y-136500000D01*
X138086202Y-137906597D01*
X138415360Y-137734610D01*
X138742026Y-136907654D01*
X138728581Y-136092346D01*
X157257974Y-136092346D01*
X157272635Y-136981363D01*
X157584640Y-137734610D01*
X157913798Y-137906597D01*
X159320395Y-136500000D01*
X159679605Y-136500000D01*
X161086202Y-137906597D01*
X161415360Y-137734610D01*
X161742026Y-136907654D01*
X161728581Y-136092346D01*
X176257974Y-136092346D01*
X176272635Y-136981363D01*
X176584640Y-137734610D01*
X176913798Y-137906597D01*
X178320395Y-136500000D01*
X178679605Y-136500000D01*
X180086202Y-137906597D01*
X180415360Y-137734610D01*
X180742026Y-136907654D01*
X180728581Y-136092346D01*
X195257974Y-136092346D01*
X195272635Y-136981363D01*
X195584640Y-137734610D01*
X195913798Y-137906597D01*
X197320395Y-136500000D01*
X197679605Y-136500000D01*
X199086202Y-137906597D01*
X199415360Y-137734610D01*
X199742026Y-136907654D01*
X199727365Y-136018637D01*
X199415360Y-135265390D01*
X199086202Y-135093403D01*
X197679605Y-136500000D01*
X197320395Y-136500000D01*
X195913798Y-135093403D01*
X195584640Y-135265390D01*
X195257974Y-136092346D01*
X180728581Y-136092346D01*
X180727365Y-136018637D01*
X180415360Y-135265390D01*
X180086202Y-135093403D01*
X178679605Y-136500000D01*
X178320395Y-136500000D01*
X176913798Y-135093403D01*
X176584640Y-135265390D01*
X176257974Y-136092346D01*
X161728581Y-136092346D01*
X161727365Y-136018637D01*
X161415360Y-135265390D01*
X161086202Y-135093403D01*
X159679605Y-136500000D01*
X159320395Y-136500000D01*
X157913798Y-135093403D01*
X157584640Y-135265390D01*
X157257974Y-136092346D01*
X138728581Y-136092346D01*
X138727365Y-136018637D01*
X138415360Y-135265390D01*
X138086202Y-135093403D01*
X136679605Y-136500000D01*
X136320395Y-136500000D01*
X134913798Y-135093403D01*
X134584640Y-135265390D01*
X134257974Y-136092346D01*
X119728581Y-136092346D01*
X119727365Y-136018637D01*
X119415360Y-135265390D01*
X119086202Y-135093403D01*
X117679605Y-136500000D01*
X117320395Y-136500000D01*
X115913798Y-135093403D01*
X115584640Y-135265390D01*
X115257974Y-136092346D01*
X100728581Y-136092346D01*
X100727365Y-136018637D01*
X100415360Y-135265390D01*
X100086202Y-135093403D01*
X98679605Y-136500000D01*
X98320395Y-136500000D01*
X96913798Y-135093403D01*
X96584640Y-135265390D01*
X96257974Y-136092346D01*
X81728581Y-136092346D01*
X81727365Y-136018637D01*
X81415360Y-135265390D01*
X81086202Y-135093403D01*
X79679605Y-136500000D01*
X79320395Y-136500000D01*
X77913798Y-135093403D01*
X77584640Y-135265390D01*
X77257974Y-136092346D01*
X68556459Y-136092346D01*
X68626195Y-135924405D01*
X68627076Y-134913798D01*
X78093403Y-134913798D01*
X79500000Y-136320395D01*
X80906597Y-134913798D01*
X97093403Y-134913798D01*
X98500000Y-136320395D01*
X99906597Y-134913798D01*
X116093403Y-134913798D01*
X117500000Y-136320395D01*
X118906597Y-134913798D01*
X135093403Y-134913798D01*
X136500000Y-136320395D01*
X137906597Y-134913798D01*
X158093403Y-134913798D01*
X159500000Y-136320395D01*
X160906597Y-134913798D01*
X177093403Y-134913798D01*
X178500000Y-136320395D01*
X179906597Y-134913798D01*
X196093403Y-134913798D01*
X197500000Y-136320395D01*
X198906597Y-134913798D01*
X198833390Y-134773690D01*
X214265000Y-134773690D01*
X214265000Y-136214250D01*
X214423750Y-136373000D01*
X216373000Y-136373000D01*
X216373000Y-134423750D01*
X216627000Y-134423750D01*
X216627000Y-136373000D01*
X218576250Y-136373000D01*
X218735000Y-136214250D01*
X218735000Y-134773690D01*
X218638327Y-134540301D01*
X218459698Y-134361673D01*
X218226309Y-134265000D01*
X216785750Y-134265000D01*
X216627000Y-134423750D01*
X216373000Y-134423750D01*
X216214250Y-134265000D01*
X214773691Y-134265000D01*
X214540302Y-134361673D01*
X214361673Y-134540301D01*
X214265000Y-134773690D01*
X198833390Y-134773690D01*
X198734610Y-134584640D01*
X197907654Y-134257974D01*
X197018637Y-134272635D01*
X196265390Y-134584640D01*
X196093403Y-134913798D01*
X179906597Y-134913798D01*
X179734610Y-134584640D01*
X178907654Y-134257974D01*
X178018637Y-134272635D01*
X177265390Y-134584640D01*
X177093403Y-134913798D01*
X160906597Y-134913798D01*
X160734610Y-134584640D01*
X159907654Y-134257974D01*
X159018637Y-134272635D01*
X158265390Y-134584640D01*
X158093403Y-134913798D01*
X137906597Y-134913798D01*
X137734610Y-134584640D01*
X136907654Y-134257974D01*
X136018637Y-134272635D01*
X135265390Y-134584640D01*
X135093403Y-134913798D01*
X118906597Y-134913798D01*
X118734610Y-134584640D01*
X117907654Y-134257974D01*
X117018637Y-134272635D01*
X116265390Y-134584640D01*
X116093403Y-134913798D01*
X99906597Y-134913798D01*
X99734610Y-134584640D01*
X98907654Y-134257974D01*
X98018637Y-134272635D01*
X97265390Y-134584640D01*
X97093403Y-134913798D01*
X80906597Y-134913798D01*
X80734610Y-134584640D01*
X79907654Y-134257974D01*
X79018637Y-134272635D01*
X78265390Y-134584640D01*
X78093403Y-134913798D01*
X68627076Y-134913798D01*
X68627801Y-134083671D01*
X67924867Y-132382439D01*
X66624407Y-131079708D01*
X64924405Y-130373805D01*
X63083671Y-130372199D01*
X61382439Y-131075133D01*
X60710000Y-131746400D01*
X60710000Y-125210000D01*
X64000000Y-125210000D01*
X64068584Y-125196358D01*
X64138514Y-125196358D01*
X65286564Y-124967997D01*
X65542505Y-124861982D01*
X66515775Y-124211663D01*
X66711663Y-124015775D01*
X67361982Y-123042505D01*
X67410670Y-122924962D01*
X67467997Y-122786564D01*
X67696358Y-121638513D01*
X67696358Y-121568584D01*
X67710000Y-121500000D01*
X67710000Y-110000000D01*
X67696358Y-109931416D01*
X67696358Y-109861487D01*
X67467997Y-108713436D01*
X67361982Y-108457496D01*
X67361982Y-108457495D01*
X67166543Y-108165000D01*
X124329286Y-108165000D01*
X124329286Y-111985000D01*
X171670714Y-111985000D01*
X171670714Y-108165000D01*
X124329286Y-108165000D01*
X67166543Y-108165000D01*
X66711663Y-107484225D01*
X66515775Y-107288337D01*
X65542505Y-106638018D01*
X65286564Y-106532003D01*
X64138514Y-106303642D01*
X64068584Y-106303642D01*
X64000000Y-106290000D01*
X60710000Y-106290000D01*
X60710000Y-104627000D01*
X228290000Y-104627000D01*
X228290000Y-108500000D01*
G36*
X158093403Y-61913798D02*
X159500000Y-63320395D01*
X160906597Y-61913798D01*
X160800111Y-61710000D01*
X177199889Y-61710000D01*
X177093403Y-61913798D01*
X178500000Y-63320395D01*
X179906597Y-61913798D01*
X179800111Y-61710000D01*
X196199889Y-61710000D01*
X196093403Y-61913798D01*
X197500000Y-63320395D01*
X198906597Y-61913798D01*
X198800111Y-61710000D01*
X215199889Y-61710000D01*
X215093403Y-61913798D01*
X216500000Y-63320395D01*
X217906597Y-61913798D01*
X217800111Y-61710000D01*
X228746463Y-61710000D01*
X228079708Y-62375593D01*
X227373805Y-64075595D01*
X227372199Y-65916329D01*
X228075133Y-67617561D01*
X229375593Y-68920292D01*
X231075595Y-69626195D01*
X232916329Y-69627801D01*
X234617561Y-68924867D01*
X235290000Y-68253600D01*
X235290000Y-91790000D01*
X232000000Y-91790000D01*
X231931416Y-91803642D01*
X230713436Y-92032003D01*
X230563510Y-92094105D01*
X230457495Y-92138018D01*
X229484225Y-92788337D01*
X229288337Y-92984225D01*
X228638019Y-93957494D01*
X228638018Y-93957495D01*
X228532003Y-94213436D01*
X228303642Y-95361486D01*
X228303642Y-95431416D01*
X228290000Y-95500000D01*
X228290000Y-98873000D01*
X149127000Y-98873000D01*
X149127000Y-89890000D01*
X170829287Y-89890000D01*
X170829287Y-96260000D01*
X205170713Y-96260000D01*
X205170713Y-89890000D01*
X170829287Y-89890000D01*
X149127000Y-89890000D01*
X149127000Y-65086202D01*
X158093403Y-65086202D01*
X158265390Y-65415360D01*
X159092346Y-65742026D01*
X159981363Y-65727365D01*
X160734610Y-65415360D01*
X160906597Y-65086202D01*
X177093403Y-65086202D01*
X177265390Y-65415360D01*
X178092346Y-65742026D01*
X178981363Y-65727365D01*
X179734610Y-65415360D01*
X179906597Y-65086202D01*
X196093403Y-65086202D01*
X196265390Y-65415360D01*
X197092346Y-65742026D01*
X197981363Y-65727365D01*
X198734610Y-65415360D01*
X198906597Y-65086202D01*
X215093403Y-65086202D01*
X215265390Y-65415360D01*
X216092346Y-65742026D01*
X216981363Y-65727365D01*
X217734610Y-65415360D01*
X217906597Y-65086202D01*
X216500000Y-63679605D01*
X215093403Y-65086202D01*
X198906597Y-65086202D01*
X197500000Y-63679605D01*
X196093403Y-65086202D01*
X179906597Y-65086202D01*
X178500000Y-63679605D01*
X177093403Y-65086202D01*
X160906597Y-65086202D01*
X159500000Y-63679605D01*
X158093403Y-65086202D01*
X149127000Y-65086202D01*
X149127000Y-63092346D01*
X157257974Y-63092346D01*
X157272635Y-63981363D01*
X157584640Y-64734610D01*
X157913798Y-64906597D01*
X159320395Y-63500000D01*
X159679605Y-63500000D01*
X161086202Y-64906597D01*
X161415360Y-64734610D01*
X161742026Y-63907654D01*
X161728581Y-63092346D01*
X176257974Y-63092346D01*
X176272635Y-63981363D01*
X176584640Y-64734610D01*
X176913798Y-64906597D01*
X178320395Y-63500000D01*
X178679605Y-63500000D01*
X180086202Y-64906597D01*
X180415360Y-64734610D01*
X180742026Y-63907654D01*
X180728581Y-63092346D01*
X195257974Y-63092346D01*
X195272635Y-63981363D01*
X195584640Y-64734610D01*
X195913798Y-64906597D01*
X197320395Y-63500000D01*
X197679605Y-63500000D01*
X199086202Y-64906597D01*
X199415360Y-64734610D01*
X199742026Y-63907654D01*
X199728581Y-63092346D01*
X214257974Y-63092346D01*
X214272635Y-63981363D01*
X214584640Y-64734610D01*
X214913798Y-64906597D01*
X216320395Y-63500000D01*
X216679605Y-63500000D01*
X218086202Y-64906597D01*
X218415360Y-64734610D01*
X218742026Y-63907654D01*
X218727365Y-63018637D01*
X218415360Y-62265390D01*
X218086202Y-62093403D01*
X216679605Y-63500000D01*
X216320395Y-63500000D01*
X214913798Y-62093403D01*
X214584640Y-62265390D01*
X214257974Y-63092346D01*
X199728581Y-63092346D01*
X199727365Y-63018637D01*
X199415360Y-62265390D01*
X199086202Y-62093403D01*
X197679605Y-63500000D01*
X197320395Y-63500000D01*
X195913798Y-62093403D01*
X195584640Y-62265390D01*
X195257974Y-63092346D01*
X180728581Y-63092346D01*
X180727365Y-63018637D01*
X180415360Y-62265390D01*
X180086202Y-62093403D01*
X178679605Y-63500000D01*
X178320395Y-63500000D01*
X176913798Y-62093403D01*
X176584640Y-62265390D01*
X176257974Y-63092346D01*
X161728581Y-63092346D01*
X161727365Y-63018637D01*
X161415360Y-62265390D01*
X161086202Y-62093403D01*
X159679605Y-63500000D01*
X159320395Y-63500000D01*
X157913798Y-62093403D01*
X157584640Y-62265390D01*
X157257974Y-63092346D01*
X149127000Y-63092346D01*
X149127000Y-61710000D01*
X158199889Y-61710000D01*
X158093403Y-61913798D01*
X158093403Y-61913798D01*
G37*
X158093403Y-61913798D02*
X159500000Y-63320395D01*
X160906597Y-61913798D01*
X160800111Y-61710000D01*
X177199889Y-61710000D01*
X177093403Y-61913798D01*
X178500000Y-63320395D01*
X179906597Y-61913798D01*
X179800111Y-61710000D01*
X196199889Y-61710000D01*
X196093403Y-61913798D01*
X197500000Y-63320395D01*
X198906597Y-61913798D01*
X198800111Y-61710000D01*
X215199889Y-61710000D01*
X215093403Y-61913798D01*
X216500000Y-63320395D01*
X217906597Y-61913798D01*
X217800111Y-61710000D01*
X228746463Y-61710000D01*
X228079708Y-62375593D01*
X227373805Y-64075595D01*
X227372199Y-65916329D01*
X228075133Y-67617561D01*
X229375593Y-68920292D01*
X231075595Y-69626195D01*
X232916329Y-69627801D01*
X234617561Y-68924867D01*
X235290000Y-68253600D01*
X235290000Y-91790000D01*
X232000000Y-91790000D01*
X231931416Y-91803642D01*
X230713436Y-92032003D01*
X230563510Y-92094105D01*
X230457495Y-92138018D01*
X229484225Y-92788337D01*
X229288337Y-92984225D01*
X228638019Y-93957494D01*
X228638018Y-93957495D01*
X228532003Y-94213436D01*
X228303642Y-95361486D01*
X228303642Y-95431416D01*
X228290000Y-95500000D01*
X228290000Y-98873000D01*
X149127000Y-98873000D01*
X149127000Y-89890000D01*
X170829287Y-89890000D01*
X170829287Y-96260000D01*
X205170713Y-96260000D01*
X205170713Y-89890000D01*
X170829287Y-89890000D01*
X149127000Y-89890000D01*
X149127000Y-65086202D01*
X158093403Y-65086202D01*
X158265390Y-65415360D01*
X159092346Y-65742026D01*
X159981363Y-65727365D01*
X160734610Y-65415360D01*
X160906597Y-65086202D01*
X177093403Y-65086202D01*
X177265390Y-65415360D01*
X178092346Y-65742026D01*
X178981363Y-65727365D01*
X179734610Y-65415360D01*
X179906597Y-65086202D01*
X196093403Y-65086202D01*
X196265390Y-65415360D01*
X197092346Y-65742026D01*
X197981363Y-65727365D01*
X198734610Y-65415360D01*
X198906597Y-65086202D01*
X215093403Y-65086202D01*
X215265390Y-65415360D01*
X216092346Y-65742026D01*
X216981363Y-65727365D01*
X217734610Y-65415360D01*
X217906597Y-65086202D01*
X216500000Y-63679605D01*
X215093403Y-65086202D01*
X198906597Y-65086202D01*
X197500000Y-63679605D01*
X196093403Y-65086202D01*
X179906597Y-65086202D01*
X178500000Y-63679605D01*
X177093403Y-65086202D01*
X160906597Y-65086202D01*
X159500000Y-63679605D01*
X158093403Y-65086202D01*
X149127000Y-65086202D01*
X149127000Y-63092346D01*
X157257974Y-63092346D01*
X157272635Y-63981363D01*
X157584640Y-64734610D01*
X157913798Y-64906597D01*
X159320395Y-63500000D01*
X159679605Y-63500000D01*
X161086202Y-64906597D01*
X161415360Y-64734610D01*
X161742026Y-63907654D01*
X161728581Y-63092346D01*
X176257974Y-63092346D01*
X176272635Y-63981363D01*
X176584640Y-64734610D01*
X176913798Y-64906597D01*
X178320395Y-63500000D01*
X178679605Y-63500000D01*
X180086202Y-64906597D01*
X180415360Y-64734610D01*
X180742026Y-63907654D01*
X180728581Y-63092346D01*
X195257974Y-63092346D01*
X195272635Y-63981363D01*
X195584640Y-64734610D01*
X195913798Y-64906597D01*
X197320395Y-63500000D01*
X197679605Y-63500000D01*
X199086202Y-64906597D01*
X199415360Y-64734610D01*
X199742026Y-63907654D01*
X199728581Y-63092346D01*
X214257974Y-63092346D01*
X214272635Y-63981363D01*
X214584640Y-64734610D01*
X214913798Y-64906597D01*
X216320395Y-63500000D01*
X216679605Y-63500000D01*
X218086202Y-64906597D01*
X218415360Y-64734610D01*
X218742026Y-63907654D01*
X218727365Y-63018637D01*
X218415360Y-62265390D01*
X218086202Y-62093403D01*
X216679605Y-63500000D01*
X216320395Y-63500000D01*
X214913798Y-62093403D01*
X214584640Y-62265390D01*
X214257974Y-63092346D01*
X199728581Y-63092346D01*
X199727365Y-63018637D01*
X199415360Y-62265390D01*
X199086202Y-62093403D01*
X197679605Y-63500000D01*
X197320395Y-63500000D01*
X195913798Y-62093403D01*
X195584640Y-62265390D01*
X195257974Y-63092346D01*
X180728581Y-63092346D01*
X180727365Y-63018637D01*
X180415360Y-62265390D01*
X180086202Y-62093403D01*
X178679605Y-63500000D01*
X178320395Y-63500000D01*
X176913798Y-62093403D01*
X176584640Y-62265390D01*
X176257974Y-63092346D01*
X161728581Y-63092346D01*
X161727365Y-63018637D01*
X161415360Y-62265390D01*
X161086202Y-62093403D01*
X159679605Y-63500000D01*
X159320395Y-63500000D01*
X157913798Y-62093403D01*
X157584640Y-62265390D01*
X157257974Y-63092346D01*
X149127000Y-63092346D01*
X149127000Y-61710000D01*
X158199889Y-61710000D01*
X158093403Y-61913798D01*
M02*
