M48
;DRILL file {KiCad 4.0.6} date 04/26/18 14:34:15
;FORMAT={-:-/ absolute / metric / decimal}
FMAT,2
METRIC,TZ
T1C0.750
T2C1.600
T3C3.200
%
G90
G05
M71
T1
X64.Y-98.5
X64.Y-100.5
X64.Y-102.5
T2
X79.5Y-63.5
X79.5Y-136.5
X98.5Y-63.5
X98.5Y-136.5
X117.5Y-63.5
X117.5Y-136.5
X136.5Y-63.5
X136.5Y-136.5
X159.5Y-63.5
X159.5Y-136.5
X178.5Y-63.5
X178.5Y-136.5
X197.5Y-63.5
X197.5Y-136.5
X216.5Y-63.5
X216.5Y-136.5
T3
X64.Y-65.
X64.Y-80.5
X64.Y-135.
X232.Y-65.
X232.Y-80.5
X232.Y-135.
T0
M30
